<svg xmlns="http://www.w3.org/2000/svg" xmlns:xlink="http://www.w3.org/1999/xlink" xmlns:xodm="http://www.corel.com/coreldraw/odm/2003" xml:space="preserve" version="1.1" style="shape-rendering:geometricPrecision; text-rendering:geometricPrecision; image-rendering:optimizeQuality; fill-rule:evenodd; clip-rule:evenodd" viewBox="275.05 477.62 560.5 122.25">
 <defs>
  <style type="text/css">
   <![CDATA[
    .fil1 {fill:#000066}
    .fil0 {fill:#000066;fill-rule:nonzero}
   ]]>
  </style>
 </defs>
 <g id="Layer_x0020_1">
  <metadata id="CorelCorpID_0Corel-Layer"/>
  <path class="fil0" d="M440.75 548.4l5.4 4c-2.47,4.68 -5.87,8.3 -10.17,10.81 -4.28,2.52 -9.16,3.79 -14.65,3.79 -8.06,0 -14.73,-2.67 -20,-7.99 -5.25,-5.31 -7.88,-12.06 -7.88,-20.25 0,-8.2 2.63,-14.96 7.9,-20.28 5.28,-5.32 11.93,-7.99 19.97,-7.99 4.98,0 9.53,1.09 13.63,3.27 4.1,2.19 7.43,5.3 10,9.34l-5.62 4c-1.68,-3.22 -4.13,-5.75 -7.31,-7.57 -3.19,-1.82 -6.75,-2.73 -10.69,-2.73 -6.05,0 -11.06,2.08 -15.03,6.23 -3.97,4.15 -5.95,9.4 -5.95,15.73 0,6.35 1.98,11.6 5.95,15.74 3.97,4.13 8.98,6.2 15.03,6.2 4.24,0 7.99,-1.05 11.27,-3.14 3.28,-2.08 6,-5.13 8.15,-9.16z"/>
  <path id="1" class="fil0" d="M481.75 560.7c6.05,0 11.07,-2.07 15.05,-6.2 3.97,-4.14 5.95,-9.39 5.95,-15.74 0,-6.36 -1.98,-11.63 -5.93,-15.76 -3.95,-4.14 -8.99,-6.2 -15.07,-6.2 -6.05,0 -11.07,2.08 -15.05,6.23 -3.97,4.15 -5.95,9.4 -5.95,15.73 0,6.35 1.98,11.6 5.95,15.74 3.98,4.13 9,6.2 15.05,6.2zm-0.02 6.3c-8.08,0 -14.75,-2.67 -20,-7.99 -5.25,-5.31 -7.88,-12.06 -7.88,-20.25 0,-8.2 2.63,-14.96 7.92,-20.28 5.26,-5.32 11.91,-7.99 19.96,-7.99 8.07,0 14.75,2.67 20.07,8.02 5.3,5.34 7.95,12.09 7.95,20.25 0,8.19 -2.65,14.94 -7.93,20.25 -5.29,5.32 -11.99,7.99 -20.09,7.99z"/>
  <polygon id="2" class="fil0" points="521.63,565.6 521.63,511.39 528.43,511.39 528.43,565.6 "/>
  <polygon id="3" class="fil0" points="544.63,565.6 544.63,511.69 548.15,511.69 583.13,551.98 583.13,511.69 589.83,511.69 589.83,565.6 586.42,565.6 551.33,525.31 551.33,565.6 "/>
  <path id="4" class="fil0" d="M600.78 557.48l3.9 -5.78c3.82,2.95 7.79,5.2 11.9,6.76 4.12,1.55 8.2,2.34 12.24,2.34 4.98,0 9.03,-1.05 12.13,-3.17 3.12,-2.12 4.67,-4.83 4.67,-8.15 0,-2.63 -1.12,-4.8 -3.35,-6.5 -2.24,-1.7 -5.32,-2.72 -9.25,-3.05 -0.95,-0.1 -2.32,-0.2 -4.1,-0.28 -8.87,-0.64 -14.9,-1.67 -18.14,-3.14 -2.5,-1.21 -4.41,-2.76 -5.71,-4.66 -1.3,-1.92 -1.95,-4.05 -1.95,-6.44 0,-4.33 1.93,-7.9 5.81,-10.72 3.87,-2.79 8.9,-4.2 15.09,-4.2 4.5,0 8.93,0.74 13.31,2.22 4.39,1.49 8.55,3.69 12.49,6.59l-3.9 5.6c-3.34,-2.69 -6.82,-4.7 -10.49,-6.07 -3.66,-1.35 -7.43,-2.03 -11.3,-2.03 -4.06,0 -7.41,0.8 -10.06,2.38 -2.64,1.58 -3.95,3.57 -3.95,5.95 0,0.93 0.21,1.8 0.63,2.58 0.42,0.79 1.08,1.54 1.95,2.22 2.22,1.65 7,2.72 14.37,3.17 3.38,0.2 6.01,0.4 7.86,0.63 5.47,0.62 9.8,2.37 13,5.27 3.19,2.9 4.79,6.45 4.79,10.68 0,5.03 -2.19,9.18 -6.57,12.43 -4.38,3.25 -10.13,4.89 -17.23,4.89 -5.37,0 -10.37,-0.79 -14.97,-2.34 -4.62,-1.56 -9,-3.95 -13.17,-7.18z"/>
  <polygon id="5" class="fil0" points="665.63,565.6 665.63,511.6 672.33,511.6 672.33,538.5 703.25,511.6 712.03,511.6 690.25,530.78 715.33,565.6 707.23,565.6 685.42,535.43 672.33,546.41 672.33,565.6 "/>
  <path id="6" class="fil0" d="M730.63 535.7l23.8 0c3.39,0 5.95,-0.75 7.69,-2.25 1.75,-1.49 2.61,-3.69 2.61,-6.59 0,-2.81 -0.86,-5.03 -2.61,-6.6 -1.74,-1.58 -4.19,-2.36 -7.35,-2.36l-24.14 0 0 17.8zm-6.7 29.9l0 -53.91 30.94 0c5.26,0 9.38,1.34 12.38,3.99 2.98,2.65 4.48,6.32 4.48,11 0,3.9 -1.16,7.23 -3.49,10.02 -2.36,2.78 -5.44,4.51 -9.27,5.2l13.47 23.7 -7.41 0 -13.48 -23.6 -20.92 0 0 23.6 -6.7 0z"/>
  <path id="7" class="fil0" d="M807.55 560.7c6.05,0 11.07,-2.07 15.05,-6.2 3.97,-4.14 5.95,-9.39 5.95,-15.74 0,-6.36 -1.98,-11.63 -5.93,-15.76 -3.95,-4.14 -8.99,-6.2 -15.07,-6.2 -6.05,0 -11.07,2.08 -15.05,6.23 -3.97,4.15 -5.95,9.4 -5.95,15.73 0,6.35 1.98,11.6 5.95,15.74 3.98,4.13 9,6.2 15.05,6.2zm-0.02 6.3c-8.08,0 -14.75,-2.67 -20,-7.99 -5.25,-5.31 -7.88,-12.06 -7.88,-20.25 0,-8.2 2.63,-14.96 7.92,-20.28 5.26,-5.32 11.91,-7.99 19.96,-7.99 8.07,0 14.75,2.67 20.07,8.02 5.3,5.34 7.95,12.09 7.95,20.25 0,8.19 -2.65,14.94 -7.93,20.25 -5.29,5.32 -11.99,7.99 -20.09,7.99z"/>
  <g id="_2298892444336">
   <path class="fil1" d="M325.37 543.16l20.56 0.02 0.04 6.48c-0.92,1.6 -3.93,3.58 -5.54,3.88l-28.2 0.13 0.05 2.54 24.15 17.33 -9.11 5.25 -25.38 -16.93 -0.12 -18.72 23.55 0.02z"/>
   <path class="fil1" d="M322.34 536.2l-20.62 -0.02 -0.04 -6.51c0.92,-1.6 3.95,-3.58 5.56,-3.88l28.28 -0.14 -0.04 -2.54 -24.23 -17.38 9.14 -5.27 25.46 16.98 0.12 18.78 -23.63 -0.02z"/>
   <polygon class="fil1" points="275.05,511.93 275.11,566.68 325.58,599.87 337.47,592.46 288.6,559.21 288.66,518.2 337.35,485.18 325.58,477.62 "/>
   <polygon class="fil1" points="376.61,511.93 376.55,566.68 326.08,599.87 314.19,592.46 363.06,559.21 363,518.2 314.31,485.18 326.08,477.62 "/>
  </g>
 </g>
</svg>