<?xml version="1.0" encoding="UTF-8"?>
<!DOCTYPE svg PUBLIC "-//W3C//DTD SVG 1.1//EN" "http://www.w3.org/Graphics/SVG/1.1/DTD/svg11.dtd">
<!-- Creator: CorelDRAW 2019 (64-Bit) -->
<?xml-stylesheet href="icon.css" type="text/css"?>
<svg xmlns="http://www.w3.org/2000/svg" xml:space="preserve" width="1080px" height="1080px" version="1.1" style="shape-rendering:geometricPrecision; text-rendering:geometricPrecision; image-rendering:optimizeQuality; fill-rule:evenodd; clip-rule:evenodd"
viewBox="0 0 1080 1080"
 xmlns:xlink="http://www.w3.org/1999/xlink"
 xmlns:xodm="http://www.corel.com/coreldraw/odm/2003">
 <g id="Layer_x0020_1">
  <metadata id="CorelCorpID_0Corel-Layer"/>
  <g id="_1910661882224">
   <path class="fil0" d="M537.35 565.53l118.94 0.13 0.24 37.51c-5.32,9.24 -22.76,20.71 -32.05,22.4l-163.15 0.81 0.27 14.66 139.71 100.26 -52.71 30.39 -146.8 -97.96 -0.74 -108.32 136.29 0.12z"/>
   <path class="fil0" d="M519.83 525.28l-119.31 -0.14 -0.25 -37.62c5.34,-9.27 22.84,-20.77 32.15,-22.47l163.67 -0.81 -0.28 -14.71 -140.14 -100.57 52.87 -30.49 147.26 98.27 0.74 108.66 -136.71 -0.12z"/>
   <path class="fil0" d="M246.21 384.87l0.32 316.74 226.42 148.94 -0.31 0.21 12.12 7.56 53.77 35.37 1.47 -0.92 1.47 0.92 53.71 -35.33 12.19 -7.6 -0.31 -0.21 226.42 -148.94 0.31 -316.74 -227.52 -154.53 0.37 -0.24 -13.61 -8.76 -51.58 -35.03 -1.45 0.93 -1.44 -0.93 -51.51 34.98 -13.69 8.81 0.37 0.24 -227.52 154.53zm293.79 420.05l-215.39 -146.54 0.33 -237.25 215.06 -145.84 215.06 145.84 0.33 237.25 -215.39 146.54z"/>
  </g>
 </g>
</svg>
